<svg xmlns="http://www.w3.org/2000/svg" viewBox="0 0 180 180" role="img" aria-labelledby="title desc">
  <title id="title">Athenemy mark</title>
  <desc id="desc">Gold Athena-inspired crest on a deep navy background.</desc>
  <rect width="180" height="180" rx="36" fill="#071A3D"/>
  <g transform="translate(24 18)" fill="none" stroke="#D4AF37" stroke-linecap="round" stroke-linejoin="round">
    <path d="M66 6c23 0 37 13 45 26 5 9 15 12 23 15v38c0 31-22 50-68 63C20 135-2 116-2 85V47c8-3 18-6 23-15C29 19 43 6 66 6Z" stroke-width="4"/>
    <path d="M66 18c18 0 29 9 37 21 5 8 13 12 21 15v28c0 25-18 41-58 53C26 123 8 107 8 82V54c8-3 16-7 21-15 8-12 19-21 37-21Z" stroke-width="2.1" opacity=".7"/>
    <path d="M47 77c10-12 24-16 42-13-11 12-25 18-42 13Z" fill="#071A3D" stroke-width="4"/>
    <path d="M52 74c9 3 19 2 29-5" stroke-width="3"/>
    <path d="M61 47c17-9 35-8 52 3-13 2-27 6-39 15" stroke-width="4"/>
    <path d="M58 51c-5 13-5 26 1 39" stroke-width="4"/>
    <path d="M52 52c-2 12-1 24 4 36" stroke-width="2"/>
    <path d="M40 61c-5 10-6 21-2 33" stroke-width="2"/>
    <path d="M76 89c12-2 23-8 31-18" stroke-width="2.8"/>
    <path d="M78 87c11 0 21 4 28 12" stroke-width="2.4"/>
    <path d="M76 91c8 7 14 16 16 27" stroke-width="2.4"/>
    <path d="M87 85c15-2 28 2 40 13" stroke-width="2.2"/>
    <path d="M82 54c-1 10-4 20-11 28" stroke-width="2.2"/>
    <path d="M69 54c-1 9-4 17-10 24" stroke-width="2.2"/>
    <path d="M96 55c-3 7-8 13-15 18" stroke-width="2.2"/>
    <path d="M54 106c8-6 19-9 33-8v27c-14-1-25-5-33-12v-7Z" stroke-width="3"/>
    <path d="M87 98c14-1 25 2 33 8v7c-8 7-19 11-33 12V98Z" stroke-width="3"/>
    <path d="M63 109c7 2 14 5 20 9" stroke-width="1.8"/>
    <path d="M111 109c-7 2-14 5-20 9" stroke-width="1.8"/>
    <path d="M17 101c10 6 20 12 30 18" stroke-width="2"/>
    <path d="M25 91c2 8 3 16 1 23" stroke-width="2"/>
    <path d="M115 119c10-6 20-12 30-18" stroke-width="2"/>
    <path d="M135 91c-2 8-3 16-1 23" stroke-width="2"/>
    <path d="M66 32l4 8 8 4-8 4-4 8-4-8-8-4 8-4 4-8Z" stroke-width="1.8"/>
    <path d="M30 40l2 4 4 2-4 2-2 4-2-4-4-2 4-2 2-4Z" stroke-width="1.6"/>
    <path d="M110 42l2 4 4 2-4 2-2 4-2-4-4-2 4-2 2-4Z" stroke-width="1.6"/>
  </g>
</svg>
